<svg width="1280" height="480" viewBox="0 0 1280 480" fill="none" xmlns="http://www.w3.org/2000/svg" role="img" aria-labelledby="title desc">
  <title id="title">ShahinKit agent operating system banner</title>
  <desc id="desc">A dark editorial banner for ShahinKit showing Claude Code and OpenAI Codex connected to memory, planning, handoff, and opt-in indexing workflows.</desc>
  <defs>
    <linearGradient id="bg" x1="0" y1="0" x2="1280" y2="480" gradientUnits="userSpaceOnUse">
      <stop stop-color="#090A0F"/>
      <stop offset="0.52" stop-color="#101821"/>
      <stop offset="1" stop-color="#071C18"/>
    </linearGradient>
    <linearGradient id="panel" x1="84" y1="92" x2="1196" y2="390" gradientUnits="userSpaceOnUse">
      <stop stop-color="#151923"/>
      <stop offset="1" stop-color="#0E1516"/>
    </linearGradient>
    <filter id="shadow" x="52" y="62" width="1176" height="356" filterUnits="userSpaceOnUse" color-interpolation-filters="sRGB">
      <feDropShadow dx="0" dy="18" stdDeviation="24" flood-color="#000000" flood-opacity="0.36"/>
    </filter>
  </defs>

  <rect width="1280" height="480" rx="0" fill="url(#bg)"/>
  <path d="M0 405C181 346 267 428 439 372C616 314 674 183 858 150C1000 124 1121 154 1280 95V480H0V405Z" fill="#00C9A7" opacity="0.08"/>
  <path d="M0 86C176 143 315 51 493 98C672 146 744 253 924 274C1068 291 1172 234 1280 256V0H0V86Z" fill="#FF6B6B" opacity="0.09"/>

  <g filter="url(#shadow)">
    <rect x="84" y="82" width="1112" height="316" rx="30" fill="url(#panel)" stroke="#273241"/>
    <rect x="108" y="106" width="1064" height="268" rx="20" fill="#090D12" stroke="#1F2937"/>
  </g>

  <g opacity="0.88">
    <rect x="134" y="132" width="214" height="52" rx="18" fill="#151923" stroke="#FF6B6B"/>
    <text x="161" y="165" fill="#F8FAFC" font-family="Inter, Arial, sans-serif" font-size="18" font-weight="800" letter-spacing="1.6">CLAUDE CODE</text>
    <circle cx="320" cy="158" r="7" fill="#FF6B6B"/>
  </g>

  <g opacity="0.88">
    <rect x="372" y="132" width="228" height="52" rx="18" fill="#101A18" stroke="#00C9A7"/>
    <text x="399" y="165" fill="#F8FAFC" font-family="Inter, Arial, sans-serif" font-size="18" font-weight="800" letter-spacing="1.6">OPENAI CODEX</text>
    <circle cx="572" cy="158" r="7" fill="#00C9A7"/>
  </g>

  <text x="134" y="248" fill="#FFFFFF" font-family="Inter, Arial, sans-serif" font-size="58" font-weight="900" letter-spacing="-1">
    Agent OS in a repo.
  </text>
  <text x="137" y="296" fill="#B8C2CC" font-family="Inter, Arial, sans-serif" font-size="24" font-weight="600">
    Instructions, skills, memory routes, handoffs, vaults, and consent gates.
  </text>

  <g>
    <rect x="134" y="326" width="126" height="34" rx="17" fill="#FFD700"/>
    <text x="158" y="349" fill="#090A0F" font-family="Inter, Arial, sans-serif" font-size="15" font-weight="900">prime</text>
    <path d="M268 343H300" stroke="#52606D" stroke-width="3" stroke-linecap="round"/>
    <path d="M296 336L304 343L296 350" stroke="#52606D" stroke-width="3" stroke-linecap="round" stroke-linejoin="round"/>
    <rect x="314" y="326" width="148" height="34" rx="17" fill="#845EC2"/>
    <text x="338" y="349" fill="#FFFFFF" font-family="Inter, Arial, sans-serif" font-size="15" font-weight="900">deep-idea</text>
    <path d="M470 343H502" stroke="#52606D" stroke-width="3" stroke-linecap="round"/>
    <path d="M498 336L506 343L498 350" stroke="#52606D" stroke-width="3" stroke-linecap="round" stroke-linejoin="round"/>
    <rect x="516" y="326" width="148" height="34" rx="17" fill="#00C9A7"/>
    <text x="540" y="349" fill="#06110F" font-family="Inter, Arial, sans-serif" font-size="15" font-weight="900">deep-plan</text>
    <path d="M672 343H704" stroke="#52606D" stroke-width="3" stroke-linecap="round"/>
    <path d="M700 336L708 343L700 350" stroke="#52606D" stroke-width="3" stroke-linecap="round" stroke-linejoin="round"/>
    <rect x="718" y="326" width="134" height="34" rx="17" fill="#FF6B6B"/>
    <text x="742" y="349" fill="#170707" font-family="Inter, Arial, sans-serif" font-size="15" font-weight="900">wrap-up</text>
  </g>

  <g transform="translate(865 132)">
    <rect width="254" height="216" rx="24" fill="#121720" stroke="#273241"/>
    <rect x="24" y="24" width="206" height="34" rx="11" fill="#1C2530"/>
    <circle cx="42" cy="41" r="5" fill="#FF6B6B"/>
    <circle cx="60" cy="41" r="5" fill="#FFD700"/>
    <circle cx="78" cy="41" r="5" fill="#00C9A7"/>
    <text x="24" y="89" fill="#F8FAFC" font-family="Menlo, Consolas, monospace" font-size="16" font-weight="700">$ shahinkit doctor</text>
    <text x="24" y="122" fill="#00C9A7" font-family="Menlo, Consolas, monospace" font-size="15">ok: skills</text>
    <text x="24" y="150" fill="#FFD700" font-family="Menlo, Consolas, monospace" font-size="15">ok: memory routes</text>
    <text x="24" y="178" fill="#FF6B6B" font-family="Menlo, Consolas, monospace" font-size="15">safe: opt-in hooks</text>
  </g>

  <text x="984" y="421" fill="#7D8B99" font-family="Inter, Arial, sans-serif" font-size="15" font-weight="700">
    Stop losing context. Start finishing things.
  </text>
</svg>
